PathFileType	4	(X/Y/Z)	65_1_31_p1_0-295_filt_butterworth.trc
DataRate	CameraRate	NumFrames	NumMarkers	Units	OrigDataRate	OrigDataStartFrame	OrigNumFrames
59.0	59.0	5	27	m	59.0	258	295
Frame#	Time	RHip			RKnee			RAnkle			RBigToe			RSmallToe			RHeel			LHip			LKnee			LAnkle			LBigToe			LSmallToe			LHeel			Neck			Head			Nose			RShoulder			RElbow			RWrist			RThumb			RIndex			RPinky			LShoulder			LElbow			LWrist			LThumb			LIndex			LPinky			
		X1	Y1	Z1	X2	Y2	Z2	X3	Y3	Z3	X4	Y4	Z4	X5	Y5	Z5	X6	Y6	Z6	X7	Y7	Z7	X8	Y8	Z8	X9	Y9	Z9	X10	Y10	Z10	X11	Y11	Z11	X12	Y12	Z12	X13	Y13	Z13	X14	Y14	Z14	X15	Y15	Z15	X16	Y16	Z16	X17	Y17	Z17	X18	Y18	Z18	X19	Y19	Z19	X20	Y20	Z20	X21	Y21	Z21	X22	Y22	Z22	X23	Y23	Z23	X24	Y24	Z24	X25	Y25	Z25	X26	Y26	Z26	X27	Y27	Z27	
258	4.372881355932203	0.4324276898215518	0.6956678663718634	0.902136738356748	0.397793808220434	0.24487652785114614	0.9614451907497108	0.35783332125091843	-0.1886997490453497	1.0195498337525981	0.2734371865467362	-0.22767056587577755	0.7846671717082639	0.3583104362292865	-0.2157101304187737	0.7851025116746309	0.30414732560695573	-0.27049335961229476	1.1281713684011172	0.1908392843771178	0.704364020363445	0.9465863420429994	0.16210421877257578	0.2557658428434324	0.9885329701928	0.12481477933317778	-0.1698913527969038	1.028508745525005	0.13470414586093407	-0.20721391732812303	0.8173638314420415	0.0690009986299208	-0.21075915085513652	0.874003005078063	0.1437966587422223	-0.2411106671890243	1.1217172414950367	0.3848180024460456	1.371541161020571	0.8776900555416545	0.4196521932600759	1.652364141860195	0.7982445043702191	0.39577965031815354	1.4864425735423605	0.7665776535311497	0.5499505057269786	1.2409725557408913	0.9070659017724172	0.5089151522245934	0.9385802680449166	0.8190852965697554	0.3764638260823736	0.7456175740617437	0.7349279623244834	0.3221799719764289	0.6832224223336787	0.6796600269409288	0.2889107247942718	0.6510647760488241	0.7375469827338257	0.2793379934865856	0.6387376233476058	0.7674648061140465	0.2109080436042588	1.2921672356298801	0.9119422628182091	0.1314078755862556	0.9943880705486703	0.875033133414669	0.24038299925342713	0.7623304035062284	0.7731022441320278	0.3479992489426159	0.7460205223256225	0.6764677428514628	0.33349712782244095	0.6711984570344531	0.7130942147908481	0.28506668810850533	0.6498552204817172	0.7376977471789152	
259	4.389830508474576	0.43298835586539763	0.6959972995461645	0.9005296303533258	0.3976778665777569	0.2443407917241943	0.9615480705242189	0.3578189142344358	-0.18892255878675343	1.0194932522226479	0.27348383771948076	-0.22775283310337774	0.7848173959753987	0.3584166354441668	-0.21577669497783852	0.7852956437342431	0.3043784585773748	-0.2706675670745103	1.1282925651480296	0.19101378485903878	0.7040159955766914	0.9465965552338689	0.16211504644141042	0.25599647272909165	0.9884418716914296	0.12482064522333829	-0.1698673648776188	1.0284834034848107	0.13470182974235512	-0.20730720150558601	0.8174081794604023	0.06843239384944716	-0.21114666710883873	0.8753507456962446	0.14341066274748424	-0.24122456942623172	1.1224272867968446	0.3848270744307572	1.3715214968519627	0.8777623437688955	0.41961347114999975	1.6523649990500524	0.7982160339348943	0.397014302221776	1.4858491081216247	0.7662497037508784	0.5498396566286012	1.2406139174220634	0.9066898800808523	0.5099543103917881	0.9381247117885662	0.8177581880206475	0.3765342441366075	0.7448288341273983	0.7349860516300611	0.32065451433114545	0.6816491310502221	0.6823863427629869	0.2889817045552671	0.6507217310742784	0.7376451546466427	0.27939288367511633	0.6387949391801324	0.7674159777431205	0.21138521255524634	1.292073731625314	0.914005788761971	0.13149778219555605	0.9942470349591038	0.8764589580319504	0.24042957936818354	0.7624055776737104	0.7746877578536939	0.34805324201721466	0.7466056009818723	0.6777105791187121	0.33370556171746973	0.6714378147532897	0.7122549120205012	0.2852091512172074	0.6507072540854529	0.7379281093260538	
260	4.406779661016949	0.43354069409317175	0.6962912117817537	0.8990941544275748	0.39757188923035003	0.2439114896402269	0.9616764331324299	0.3577837438257191	-0.18924055564366163	1.019482065246216	0.27343807932256076	-0.22757630840931278	0.7845364399708417	0.35850733073482977	-0.21581472328321785	0.7853879117187811	0.3045853825473874	-0.27096548082844085	1.1286167751399838	0.19114100342558263	0.7036183448450882	0.946574980402625	0.1621251156961232	0.25619734435841807	0.9884112030485788	0.1248312932600208	-0.16984860693734077	1.028467770550331	0.13470382629677033	-0.20723632267709396	0.8174873111285771	0.06816448511822082	-0.21104335741115182	0.8759847486116958	0.1429556384772749	-0.24156288244873422	1.123361942007762	0.38483805150226646	1.371497039716682	0.8778286383098504	0.41962473080355855	1.6523677722288999	0.7982003662974394	0.3981919584466884	1.4851315330115882	0.7660500218623935	0.5497813899037882	1.2401484251690726	0.90645846175803	0.51099312509357	0.937675278188203	0.8154870753699487	0.3766439606085806	0.7439612597354891	0.7349603216904481	0.3194763518321172	0.6802431257562385	0.6846673633400461	0.28904425311135185	0.6504485543367247	0.7372904574880236	0.2794193526397347	0.6387958086234122	0.7674322729079168	0.21199468955520898	1.291938041149541	0.9166252478315358	0.1315565044407296	0.9944044063078332	0.8765588759420868	0.24008935212259067	0.7633006915794918	0.7737928126946643	0.3480171235512249	0.7464414898736861	0.6788883687803264	0.3337809552665214	0.6715245010179361	0.7117101860965646	0.2851520630920533	0.650867602256822	0.7379417280577394	
261	4.423728813559322	0.4340575769431935	0.6965438374664387	0.8978865027256252	0.39749339672891987	0.24365426949810098	0.961788428052152	0.35772593306176215	-0.18967303777194125	1.0195078748503976	0.2731823678493325	-0.2268881832516859	0.7834124628693643	0.3585374610855504	-0.21580215091602123	0.7853285287321601	0.3047837706483645	-0.27131645238545693	1.1291041647474174	0.19120991822749636	0.7031601883966292	0.9465136511914058	0.16212825924830832	0.2563179415612086	0.9884364564304366	0.12484881531337279	-0.16983341821002512	1.0284624715885415	0.13471222335582478	-0.206903842169166	0.8176462744527825	0.06821330209191469	-0.2104333453783233	0.8762229659328429	0.14248548456148102	-0.24223734271695616	1.1246947957937767	0.3848511881897181	1.3714660022572722	0.8778834730401053	0.4196500578911956	1.6523731042599517	0.7981915311160588	0.39917989271159815	1.484386081318406	0.7659173040825746	0.5497660936531795	1.2397479278017656	0.9063810974923607	0.511894101122054	0.9373207517107993	0.812633945212975	0.3767255583734591	0.7433529816993643	0.7350350480100761	0.3186723343576925	0.6790779985497132	0.6869296369501815	0.289101134757337	0.6503364323850769	0.7369610211665264	0.2794190250716971	0.6387314644815457	0.7675220715102664	0.21264951783142408	1.291771597993371	0.919428385631109	0.13160512833462976	0.994853055897295	0.8759962821930118	0.23981761290645306	0.7648570292056603	0.7704609698581883	0.34796167859533855	0.746112579972758	0.6795691162729751	0.3338744827494279	0.6718061541361886	0.7112843227216783	0.28506380029299877	0.6507701759592711	0.7378627288096339	
262	4.440677966101695	0.43449664826044565	0.6967693162992871	0.8968609771988609	0.39744577304975376	0.2435440181347221	0.96183434486168	0.3576438071919136	-0.19019141398744913	1.0195457372859533	0.2727084555189713	-0.22568538466526175	0.7814412533225616	0.3585091082693672	-0.21573749418066035	0.7851336761435913	0.30502626427607626	-0.2716102705623722	1.1295539797268204	0.19121114455506377	0.7026372948901928	0.9464134654333792	0.16212864375088	0.25633164529965924	0.9885054858328924	0.12487421166650996	-0.16981667872171013	1.0284639100213384	0.13472546068793806	-0.2063168650113597	0.8178900912161874	0.06842310858159464	-0.2094967385300425	0.8762909892090021	0.14198767782560306	-0.2432695094409414	1.1265567823317462	0.3848664637837012	1.371433756692525	0.877921754168941	0.4196692289102081	1.6523804132953113	0.7981859734928722	0.3998838052084069	1.4837111488454757	0.7658287226302967	0.5497676427964899	1.2395200616380169	0.9063797174320278	0.5125644548035269	0.9370850964962342	0.8096377912837232	0.37678497612234474	0.743178547358927	0.7351362654588296	0.3180473904438135	0.6782166717279808	0.6895757539332421	0.2891417469544645	0.6503273225011945	0.7368117757124987	0.27954633568516474	0.6387367027913494	0.7672089895963078	0.21326116154189217	1.2915923317891966	0.9220378736913553	0.13179677967787495	0.9954994639827532	0.8750973500367768	0.23991448228052148	0.7667282530223802	0.7655443485969179	0.34792865572543696	0.7460977073784827	0.6796123775222201	0.3340516131748261	0.6723994820168235	0.7109196220521077	0.285040987908167	0.6508352168935744	0.7378131681012874	
